<svg width="365" height="61" viewBox="0 0 365 61" fill="none" xmlns="http://www.w3.org/2000/svg">
<g filter="url(#filter0_d_12_2)">
<path d="M0.522727 50V15.0909H11.0909V21.5H11.4773C12.2045 19.3788 13.4318 17.7045 15.1591 16.4773C16.8864 15.25 18.947 14.6364 21.3409 14.6364C23.7652 14.6364 25.8409 15.2576 27.5682 16.5C29.2955 17.7424 30.3939 19.4091 30.8636 21.5H31.2273C31.8788 19.4242 33.1515 17.7652 35.0455 16.5227C36.9394 15.2652 39.1742 14.6364 41.75 14.6364C45.053 14.6364 47.7349 15.697 49.7955 17.8182C51.8561 19.9242 52.8864 22.8182 52.8864 26.5V50H41.7727V29.0455C41.7727 27.303 41.3258 25.9773 40.4318 25.0682C39.5379 24.1439 38.3788 23.6818 36.9545 23.6818C35.4242 23.6818 34.2197 24.1818 33.3409 25.1818C32.4773 26.1667 32.0455 27.4924 32.0455 29.1591V50H21.3636V28.9318C21.3636 27.3106 20.9242 26.0303 20.0455 25.0909C19.1667 24.1515 18.0076 23.6818 16.5682 23.6818C15.5985 23.6818 14.7424 23.9167 14 24.3864C13.2576 24.8409 12.6742 25.4924 12.25 26.3409C11.8409 27.1894 11.6364 28.1894 11.6364 29.3409V50H0.522727ZM76.0682 50.6591C72.4015 50.6591 69.25 49.9091 66.6136 48.4091C63.9924 46.8939 61.9697 44.7879 60.5455 42.0909C59.1364 39.3788 58.4318 36.2348 58.4318 32.6591C58.4318 29.0682 59.1364 25.9242 60.5455 23.2273C61.9697 20.5152 63.9924 18.4091 66.6136 16.9091C69.25 15.3939 72.4015 14.6364 76.0682 14.6364C79.7348 14.6364 82.8788 15.3939 85.5 16.9091C88.1364 18.4091 90.1591 20.5152 91.5682 23.2273C92.9924 25.9242 93.7045 29.0682 93.7045 32.6591C93.7045 36.2348 92.9924 39.3788 91.5682 42.0909C90.1591 44.7879 88.1364 46.8939 85.5 48.4091C82.8788 49.9091 79.7348 50.6591 76.0682 50.6591ZM76.1364 42.2727C77.4697 42.2727 78.5985 41.8636 79.5227 41.0455C80.447 40.2273 81.1515 39.0909 81.6364 37.6364C82.1364 36.1818 82.3864 34.5 82.3864 32.5909C82.3864 30.6515 82.1364 28.9545 81.6364 27.5C81.1515 26.0455 80.447 24.9091 79.5227 24.0909C78.5985 23.2727 77.4697 22.8636 76.1364 22.8636C74.7576 22.8636 73.5909 23.2727 72.6364 24.0909C71.697 24.9091 70.9773 26.0455 70.4773 27.5C69.9924 28.9545 69.75 30.6515 69.75 32.5909C69.75 34.5 69.9924 36.1818 70.4773 37.6364C70.9773 39.0909 71.697 40.2273 72.6364 41.0455C73.5909 41.8636 74.7576 42.2727 76.1364 42.2727ZM132.136 15.0909L120.159 50H107.432L95.4773 15.0909H107.182L113.614 39.1364H113.977L120.432 15.0909H132.136ZM136.398 50V15.0909H147.511V50H136.398ZM141.966 11.0227C140.405 11.0227 139.064 10.5076 137.943 9.47727C136.822 8.43182 136.261 7.17424 136.261 5.70454C136.261 4.25 136.822 3.00757 137.943 1.97727C139.064 0.931816 140.405 0.409088 141.966 0.409088C143.542 0.409088 144.883 0.931816 145.989 1.97727C147.11 3.00757 147.67 4.25 147.67 5.70454C147.67 7.17424 147.11 8.43182 145.989 9.47727C144.883 10.5076 143.542 11.0227 141.966 11.0227ZM170.903 50.6591C167.252 50.6591 164.1 49.9394 161.449 48.5C158.813 47.0455 156.782 44.9773 155.358 42.2955C153.949 39.5985 153.244 36.3939 153.244 32.6818C153.244 29.0758 153.956 25.9242 155.381 23.2273C156.805 20.5152 158.812 18.4091 161.403 16.9091C163.994 15.3939 167.047 14.6364 170.562 14.6364C173.047 14.6364 175.32 15.0227 177.381 15.7955C179.441 16.5682 181.222 17.7121 182.722 19.2273C184.222 20.7424 185.388 22.6136 186.222 24.8409C187.055 27.053 187.472 29.5909 187.472 32.4545V35.2273H157.131V28.7727H177.131C177.116 27.5909 176.835 26.5379 176.29 25.6136C175.744 24.6894 174.994 23.9697 174.04 23.4545C173.1 22.9242 172.017 22.6591 170.79 22.6591C169.547 22.6591 168.434 22.9394 167.449 23.5C166.464 24.0455 165.684 24.7955 165.108 25.75C164.532 26.6894 164.229 27.7576 164.199 28.9545V35.5227C164.199 36.947 164.479 38.197 165.04 39.2727C165.6 40.3333 166.396 41.1591 167.426 41.75C168.456 42.3409 169.684 42.6364 171.108 42.6364C172.093 42.6364 172.987 42.5 173.79 42.2273C174.593 41.9545 175.282 41.553 175.858 41.0227C176.434 40.4924 176.866 39.8409 177.153 39.0682L187.358 39.3636C186.934 41.6515 186.002 43.6439 184.562 45.3409C183.138 47.0227 181.267 48.3333 178.949 49.2727C176.631 50.197 173.949 50.6591 170.903 50.6591ZM204.398 3.45454V50H193.148V3.45454H204.398ZM211.46 3.45454H225.392L237.21 32.2727H237.756L249.574 3.45454H263.506V50H252.551V21.4091H252.165L240.983 49.7045H233.983L222.801 21.25H222.415V50H211.46V3.45454ZM287.727 50H270.523V3.45454H287.705C292.447 3.45454 296.53 4.38636 299.955 6.25C303.394 8.09848 306.045 10.7651 307.909 14.25C309.773 17.7197 310.705 21.8712 310.705 26.7045C310.705 31.553 309.773 35.7197 307.909 39.2045C306.061 42.6894 303.417 45.3636 299.977 47.2273C296.538 49.0758 292.455 50 287.727 50ZM281.773 40.4091H287.295C289.902 40.4091 292.106 39.9697 293.909 39.0909C295.727 38.197 297.098 36.75 298.023 34.75C298.962 32.7348 299.432 30.053 299.432 26.7045C299.432 23.3561 298.962 20.6894 298.023 18.7045C297.083 16.7045 295.697 15.2652 293.864 14.3864C292.045 13.4924 289.803 13.0455 287.136 13.0455H281.773V40.4091ZM317.273 50V3.45454H336.682C340.167 3.45454 343.083 3.94697 345.432 4.93182C347.795 5.91666 349.568 7.29545 350.75 9.06818C351.947 10.8409 352.545 12.8939 352.545 15.2273C352.545 17 352.174 18.5833 351.432 19.9773C350.689 21.3561 349.667 22.5 348.364 23.4091C347.061 24.3182 345.553 24.9545 343.841 25.3182V25.7727C345.72 25.8636 347.455 26.3712 349.045 27.2955C350.652 28.2197 351.939 29.5076 352.909 31.1591C353.879 32.7955 354.364 34.7348 354.364 36.9773C354.364 39.4773 353.727 41.7121 352.455 43.6818C351.182 45.6364 349.341 47.1818 346.932 48.3182C344.523 49.4394 341.598 50 338.159 50H317.273ZM328.523 40.9318H335.477C337.917 40.9318 339.712 40.4697 340.864 39.5455C342.03 38.6212 342.614 37.3333 342.614 35.6818C342.614 34.4848 342.333 33.4545 341.773 32.5909C341.212 31.7121 340.417 31.0379 339.386 30.5682C338.356 30.0833 337.121 29.8409 335.682 29.8409H328.523V40.9318ZM328.523 22.5909H334.75C335.977 22.5909 337.068 22.3864 338.023 21.9773C338.977 21.5682 339.72 20.9773 340.25 20.2045C340.795 19.4318 341.068 18.5 341.068 17.4091C341.068 15.8485 340.515 14.6212 339.409 13.7273C338.303 12.8333 336.811 12.3864 334.932 12.3864H328.523V22.5909Z" fill="#F3EFE0"/>
<path d="M0.522727 50H-0.477273V51H0.522727V50ZM0.522727 15.0909V14.0909H-0.477273V15.0909H0.522727ZM11.0909 15.0909H12.0909V14.0909H11.0909V15.0909ZM11.0909 21.5H10.0909V22.5H11.0909V21.5ZM11.4773 21.5V22.5H12.1916L12.4232 21.8243L11.4773 21.5ZM15.1591 16.4773L15.7383 17.2925L15.1591 16.4773ZM27.5682 16.5L26.9843 17.3118L27.5682 16.5ZM30.8636 21.5L29.888 21.7192L30.0634 22.5H30.8636V21.5ZM31.2273 21.5V22.5H31.9615L32.1814 21.7995L31.2273 21.5ZM35.0455 16.5227L35.594 17.3589L35.5986 17.3558L35.0455 16.5227ZM49.7955 17.8182L49.0782 18.515L49.0807 18.5175L49.7955 17.8182ZM52.8864 50V51H53.8864V50H52.8864ZM41.7727 50H40.7727V51H41.7727V50ZM40.4318 25.0682L39.713 25.7634L39.7188 25.7693L40.4318 25.0682ZM33.3409 25.1818L32.5897 24.5217L32.5891 24.5225L33.3409 25.1818ZM32.0455 50V51H33.0455V50H32.0455ZM21.3636 50H20.3636V51H21.3636V50ZM20.0455 25.0909L20.7757 24.4078L20.7757 24.4077L20.0455 25.0909ZM14 24.3864L14.5222 25.2392L14.5284 25.2354L14.5346 25.2314L14 24.3864ZM12.25 26.3409L11.3556 25.8937L11.3524 25.9001L11.3492 25.9066L12.25 26.3409ZM11.6364 50V51H12.6364V50H11.6364ZM1.52273 50V15.0909H-0.477273V50H1.52273ZM0.522727 16.0909H11.0909V14.0909H0.522727V16.0909ZM10.0909 15.0909V21.5H12.0909V15.0909H10.0909ZM11.0909 22.5H11.4773V20.5H11.0909V22.5ZM12.4232 21.8243C13.0868 19.8888 14.1919 18.3912 15.7383 17.2925L14.5799 15.6621C12.6718 17.0179 11.3223 18.8687 10.5313 21.1757L12.4232 21.8243ZM15.7383 17.2925C17.2749 16.2007 19.1265 15.6364 21.3409 15.6364V13.6364C18.7674 13.6364 16.4979 14.2993 14.5799 15.6621L15.7383 17.2925ZM21.3409 15.6364C23.586 15.6364 25.4502 16.2084 26.9843 17.3118L28.1521 15.6882C26.2316 14.3068 23.9443 13.6364 21.3409 13.6364V15.6364ZM26.9843 17.3118C28.5112 18.4102 29.4715 19.8652 29.888 21.7192L31.8393 21.2808C31.3164 18.953 30.0797 17.0747 28.1521 15.6882L26.9843 17.3118ZM30.8636 22.5H31.2273V20.5H30.8636V22.5ZM32.1814 21.7995C32.7607 19.9537 33.8845 18.4803 35.594 17.3589L34.4969 15.6866C32.4185 17.05 30.9969 18.8948 30.2732 21.2005L32.1814 21.7995ZM35.5986 17.3558C37.3075 16.2211 39.344 15.6364 41.75 15.6364V13.6364C39.0045 13.6364 36.5713 14.3092 34.4923 15.6897L35.5986 17.3558ZM41.75 15.6364C44.8175 15.6364 47.2288 16.6112 49.0782 18.515L50.5127 17.1214C48.2409 14.7828 45.2886 13.6364 41.75 13.6364V15.6364ZM49.0807 18.5175C50.9155 20.3928 51.8864 23.0109 51.8864 26.5H53.8864C53.8864 22.6254 52.7967 19.4557 50.5102 17.1188L49.0807 18.5175ZM51.8864 26.5V50H53.8864V26.5H51.8864ZM52.8864 49H41.7727V51H52.8864V49ZM42.7727 50V29.0455H40.7727V50H42.7727ZM42.7727 29.0455C42.7727 27.1389 42.2817 25.5231 41.1448 24.367L39.7188 25.7693C40.3698 26.4314 40.7727 27.4671 40.7727 29.0455H42.7727ZM41.1506 24.373C40.047 23.232 38.6176 22.6818 36.9545 22.6818V24.6818C38.1399 24.6818 39.0287 25.0559 39.713 25.7634L41.1506 24.373ZM36.9545 22.6818C35.1843 22.6818 33.6877 23.2723 32.5897 24.5217L34.0921 25.8419C34.7517 25.0914 35.6642 24.6818 36.9545 24.6818V22.6818ZM32.5891 24.5225C31.5257 25.7351 31.0455 27.3179 31.0455 29.1591H33.0455C33.0455 27.667 33.4289 26.5982 34.0928 25.8411L32.5891 24.5225ZM31.0455 29.1591V50H33.0455V29.1591H31.0455ZM32.0455 49H21.3636V51H32.0455V49ZM22.3636 50V28.9318H20.3636V50H22.3636ZM22.3636 28.9318C22.3636 27.1258 21.8697 25.5772 20.7757 24.4078L19.3152 25.7741C19.9787 26.4834 20.3636 27.4954 20.3636 28.9318H22.3636ZM20.7757 24.4077C19.6844 23.2411 18.248 22.6818 16.5682 22.6818V24.6818C17.7672 24.6818 18.649 25.0619 19.3152 25.7741L20.7757 24.4077ZM16.5682 22.6818C15.4295 22.6818 14.3841 22.96 13.4654 23.5413L14.5346 25.2314C15.1008 24.8733 15.7674 24.6818 16.5682 24.6818V22.6818ZM13.4778 23.5335C12.5616 24.0945 11.8557 24.8934 11.3556 25.8937L13.1444 26.7881C13.4928 26.0914 13.9536 25.5873 14.5222 25.2392L13.4778 23.5335ZM11.3492 25.9066C10.8619 26.9173 10.6364 28.0718 10.6364 29.3409H12.6364C12.6364 28.3069 12.8199 27.4615 13.1508 26.7752L11.3492 25.9066ZM10.6364 29.3409V50H12.6364V29.3409H10.6364ZM11.6364 49H0.522727V51H11.6364V49ZM66.6136 48.4091L66.1132 49.2749L66.1191 49.2783L66.6136 48.4091ZM60.5455 42.0909L59.6581 42.552L59.6612 42.5579L60.5455 42.0909ZM60.5455 23.2273L59.6601 22.7623L59.6591 22.7642L60.5455 23.2273ZM66.6136 16.9091L67.1103 17.777L67.1119 17.7761L66.6136 16.9091ZM85.5 16.9091L84.9995 17.7749L85.0055 17.7783L85.5 16.9091ZM91.5682 23.2273L90.6808 23.6883L90.6839 23.6942L91.5682 23.2273ZM91.5682 42.0909L90.6828 41.626L90.6819 41.6278L91.5682 42.0909ZM85.5 48.4091L85.9967 49.277L85.9983 49.2761L85.5 48.4091ZM79.5227 41.0455L78.8599 40.2967L79.5227 41.0455ZM81.6364 37.6364L80.6906 37.3113L80.6877 37.3201L81.6364 37.6364ZM81.6364 27.5L80.6876 27.8162L80.6907 27.8251L81.6364 27.5ZM79.5227 24.0909L80.1856 23.3421V23.3421L79.5227 24.0909ZM72.6364 24.0909L71.9855 23.3316L71.9796 23.3368L72.6364 24.0909ZM70.4773 27.5L69.5315 27.1749L69.5286 27.1838L70.4773 27.5ZM70.4773 37.6364L69.5285 37.9526L69.5316 37.9614L70.4773 37.6364ZM72.6364 41.0455L71.9796 41.7996L71.9856 41.8047L72.6364 41.0455ZM76.0682 49.6591C72.5388 49.6591 69.5653 48.9379 67.1082 47.5399L66.1191 49.2783C68.9347 50.8803 72.2642 51.6591 76.0682 51.6591V49.6591ZM67.1141 47.5433C64.6571 46.1231 62.7668 44.1558 61.4297 41.6239L59.6612 42.5579C61.1726 45.4199 63.3278 47.6648 66.1132 49.2749L67.1141 47.5433ZM61.4328 41.6299C60.1094 39.0826 59.4318 36.1016 59.4318 32.6591H57.4318C57.4318 36.3681 58.1634 39.675 59.6581 42.5519L61.4328 41.6299ZM59.4318 32.6591C59.4318 29.2005 60.1097 26.2207 61.4318 23.6903L59.6591 22.7642C58.163 25.6278 57.4318 28.9359 57.4318 32.6591H59.4318ZM61.4308 23.6922C62.7678 21.1461 64.6569 19.181 67.1103 17.777L66.117 16.0412C63.328 17.6372 61.1715 19.8842 59.6601 22.7623L61.4308 23.6922ZM67.1119 17.7761C69.5683 16.3644 72.5404 15.6364 76.0682 15.6364V13.6364C72.2626 13.6364 68.9317 14.4235 66.1154 16.0421L67.1119 17.7761ZM76.0682 15.6364C79.5962 15.6364 82.5596 16.3645 84.9996 17.7749L86.0004 16.0433C83.198 14.4234 79.8735 13.6364 76.0682 13.6364V15.6364ZM85.0055 17.7783C87.4729 19.1822 89.3599 21.1459 90.6808 23.6883L92.4556 22.7662C90.9583 19.8844 88.7998 17.636 85.9945 16.0399L85.0055 17.7783ZM90.6839 23.6942C92.0197 26.2238 92.7045 29.2021 92.7045 32.6591H94.7045C94.7045 28.9343 93.9651 25.6247 92.4525 22.7603L90.6839 23.6942ZM92.7045 32.6591C92.7045 36.1 92.0201 39.0795 90.6828 41.626L92.4535 42.5558C93.9648 39.6781 94.7045 36.3697 94.7045 32.6591H92.7045ZM90.6819 41.6278C89.3609 44.1561 87.4728 46.1219 85.0017 47.5421L85.9983 49.2761C88.8 47.666 90.9573 45.4197 92.4545 42.554L90.6819 41.6278ZM85.0033 47.5412C82.5626 48.9379 79.5978 49.6591 76.0682 49.6591V51.6591C79.8719 51.6591 83.1949 50.8803 85.9967 49.277L85.0033 47.5412ZM76.1364 43.2727C77.6927 43.2727 79.0632 42.7878 80.1856 41.7942L78.8599 40.2967C78.1338 40.9395 77.2467 41.2727 76.1364 41.2727V43.2727ZM80.1856 41.7942C81.2698 40.8344 82.0579 39.5339 82.585 37.9526L80.6877 37.3201C80.2451 38.6479 79.6242 39.6201 78.8599 40.2967L80.1856 41.7942ZM82.5821 37.9614C83.1255 36.3805 83.3864 34.585 83.3864 32.5909H81.3864C81.3864 34.415 81.1472 35.9831 80.6907 37.3113L82.5821 37.9614ZM83.3864 32.5909C83.3864 30.5685 83.126 28.7573 82.5821 27.1749L80.6907 27.8251C81.1467 29.1518 81.3864 30.7346 81.3864 32.5909H83.3864ZM82.585 27.1838C82.0579 25.6024 81.2698 24.302 80.1856 23.3421L78.8599 24.8397C79.6242 25.5162 80.2451 26.4885 80.6877 27.8162L82.585 27.1838ZM80.1856 23.3421C79.0632 22.3485 77.6927 21.8636 76.1364 21.8636V23.8636C77.2467 23.8636 78.1338 24.1969 78.8599 24.8397L80.1856 23.3421ZM76.1364 21.8636C74.5437 21.8636 73.1394 22.3427 71.9856 23.3316L73.2872 24.8502C74.0425 24.2028 74.9715 23.8636 76.1364 23.8636V21.8636ZM71.9796 23.3368C70.8802 24.2943 70.0753 25.5931 69.5316 27.1749L71.423 27.8251C71.8792 26.4978 72.5137 25.5238 73.2931 24.845L71.9796 23.3368ZM69.5286 27.1838C69.0021 28.7632 68.75 30.5712 68.75 32.5909H70.75C70.75 30.7319 70.9827 29.1459 71.426 27.8162L69.5286 27.1838ZM68.75 32.5909C68.75 34.5822 69.0026 36.3746 69.5286 37.9526L71.426 37.3201C70.9823 35.989 70.75 34.4178 70.75 32.5909H68.75ZM69.5316 37.9614C70.0753 39.5432 70.8802 40.842 71.9796 41.7995L73.2931 40.2914C72.5137 39.6125 71.8792 38.6386 71.423 37.3113L69.5316 37.9614ZM71.9856 41.8047C73.1394 42.7937 74.5437 43.2727 76.1364 43.2727V41.2727C74.9715 41.2727 74.0425 40.9336 73.2872 40.2862L71.9856 41.8047ZM132.136 15.0909L133.082 15.4154L133.537 14.0909H132.136V15.0909ZM120.159 50V51H120.873L121.105 50.3245L120.159 50ZM107.432 50L106.486 50.324L106.717 51H107.432V50ZM95.4773 15.0909V14.0909H94.0778L94.5312 15.4149L95.4773 15.0909ZM107.182 15.0909L108.148 14.8325L107.949 14.0909H107.182V15.0909ZM113.614 39.1364L112.648 39.3948L112.846 40.1364H113.614V39.1364ZM113.977 39.1364V40.1364H114.744L114.943 39.3956L113.977 39.1364ZM120.432 15.0909V14.0909H119.665L119.466 14.8317L120.432 15.0909ZM131.19 14.7664L119.213 49.6755L121.105 50.3245L133.082 15.4154L131.19 14.7664ZM120.159 49H107.432V51H120.159V49ZM108.378 49.676L96.4233 14.7669L94.5312 15.4149L106.486 50.324L108.378 49.676ZM95.4773 16.0909H107.182V14.0909H95.4773V16.0909ZM106.216 15.3493L112.648 39.3948L114.58 38.878L108.148 14.8325L106.216 15.3493ZM113.614 40.1364H113.977V38.1364H113.614V40.1364ZM114.943 39.3956L121.398 15.3502L119.466 14.8317L113.011 38.8771L114.943 39.3956ZM120.432 16.0909H132.136V14.0909H120.432V16.0909ZM136.398 50H135.398V51H136.398V50ZM136.398 15.0909V14.0909H135.398V15.0909H136.398ZM147.511 15.0909H148.511V14.0909H147.511V15.0909ZM147.511 50V51H148.511V50H147.511ZM137.943 9.47727L137.261 10.2087L137.267 10.2136L137.943 9.47727ZM137.943 1.97727L138.62 2.71362L138.625 2.70866L137.943 1.97727ZM145.989 1.97727L145.302 2.70408L145.312 2.7136L145.989 1.97727ZM145.989 9.47727L146.67 10.209L146.671 10.2087L145.989 9.47727ZM137.398 50V15.0909H135.398V50H137.398ZM136.398 16.0909H147.511V14.0909H136.398V16.0909ZM146.511 15.0909V50H148.511V15.0909H146.511ZM147.511 49H136.398V51H147.511V49ZM141.966 10.0227C140.649 10.0227 139.551 9.59707 138.62 8.74094L137.267 10.2136C138.577 11.4181 140.162 12.0227 141.966 12.0227V10.0227ZM138.625 8.74589C137.697 7.88039 137.261 6.8837 137.261 5.70454H135.261C135.261 7.46478 135.947 8.98324 137.261 10.2087L138.625 8.74589ZM137.261 5.70454C137.261 4.54435 137.694 3.56455 138.62 2.7136L137.267 1.24094C135.95 2.4506 135.261 3.95564 135.261 5.70454H137.261ZM138.625 2.70866C139.558 1.83924 140.653 1.40909 141.966 1.40909V-0.590912C140.157 -0.590912 138.571 0.0243893 137.261 1.24589L138.625 2.70866ZM141.966 1.40909C143.296 1.40909 144.388 1.84079 145.302 2.70401L146.676 1.25054C145.377 0.0228405 143.787 -0.590912 141.966 -0.590912V1.40909ZM145.312 2.7136C146.238 3.56455 146.67 4.54435 146.67 5.70454H148.67C148.67 3.95564 147.982 2.4506 146.665 1.24094L145.312 2.7136ZM146.67 5.70454C146.67 6.8837 146.235 7.88039 145.307 8.74589L146.671 10.2087C147.985 8.98324 148.67 7.46478 148.67 5.70454H146.67ZM145.307 8.74555C144.395 9.59553 143.301 10.0227 141.966 10.0227V12.0227C143.783 12.0227 145.371 11.4196 146.67 10.209L145.307 8.74555ZM161.449 48.5L160.966 49.3756L160.972 49.3789L161.449 48.5ZM155.358 42.2955L154.472 42.7585L154.475 42.7645L155.358 42.2955ZM155.381 23.2273L156.265 23.6942L156.266 23.6922L155.381 23.2273ZM161.403 16.9091L161.904 17.7745L161.908 17.7723L161.403 16.9091ZM177.381 15.7955L177.732 14.8591L177.381 15.7955ZM186.222 24.8409L185.285 25.1913L185.286 25.1934L186.222 24.8409ZM187.472 35.2273V36.2273H188.472V35.2273H187.472ZM157.131 35.2273H156.131V36.2273H157.131V35.2273ZM157.131 28.7727V27.7727H156.131V28.7727H157.131ZM177.131 28.7727V29.7727H178.144L178.131 28.7599L177.131 28.7727ZM174.04 23.4545L173.548 24.3254L173.556 24.33L173.565 24.3346L174.04 23.4545ZM167.449 23.5L167.933 24.3749L167.944 24.3691L167.449 23.5ZM165.108 25.75L165.961 26.2726L165.964 26.2665L165.108 25.75ZM164.199 28.9545L163.199 28.9292L163.199 28.9419V28.9545H164.199ZM165.04 39.2727L164.153 39.7349L164.156 39.74L165.04 39.2727ZM167.426 41.75L166.929 42.6175L167.426 41.75ZM173.79 42.2273L174.111 43.1742L173.79 42.2273ZM175.858 41.0227L176.535 41.7583V41.7583L175.858 41.0227ZM177.153 39.0682L177.182 38.0686L176.466 38.0479L176.216 38.7191L177.153 39.0682ZM187.358 39.3636L188.341 39.546L188.554 38.3979L187.387 38.3641L187.358 39.3636ZM184.562 45.3409L183.8 44.694L183.799 44.6947L184.562 45.3409ZM178.949 49.2727L179.319 50.2016L179.324 50.1995L178.949 49.2727ZM170.903 49.6591C167.384 49.6591 164.403 48.9659 161.926 47.6211L160.972 49.3789C163.798 50.9128 167.12 51.6591 170.903 51.6591V49.6591ZM161.932 47.6244C159.467 46.2645 157.575 44.3383 156.241 41.8264L154.475 42.7645C155.989 45.6162 158.158 47.8264 160.966 49.3756L161.932 47.6244ZM156.244 41.8324C154.925 39.3065 154.244 36.2677 154.244 32.6818H152.244C152.244 36.5202 152.973 39.8905 154.472 42.7585L156.244 41.8324ZM154.244 32.6818C154.244 29.2089 154.929 26.2232 156.265 23.6942L154.496 22.7603C152.983 25.6253 152.244 28.9426 152.244 32.6818H154.244ZM156.266 23.6922C157.605 21.1431 159.481 19.1777 161.904 17.7745L160.902 16.0437C158.144 17.6405 156.005 19.8872 154.495 22.7623L156.266 23.6922ZM161.908 17.7723C164.322 16.361 167.194 15.6364 170.562 15.6364V13.6364C166.901 13.6364 163.667 14.4268 160.899 16.0459L161.908 17.7723ZM170.562 15.6364C172.943 15.6364 175.095 16.0062 177.03 16.7318L177.732 14.8591C175.545 14.0392 173.152 13.6364 170.562 13.6364V15.6364ZM177.03 16.7318C178.959 17.4555 180.616 18.5217 182.011 19.9308L183.432 18.5237C181.827 16.9026 179.923 15.6809 177.732 14.8591L177.03 16.7318ZM182.011 19.9308C183.401 21.3345 184.495 23.0811 185.285 25.1913L187.158 24.4905C186.281 22.1462 185.043 20.1503 183.432 18.5237L182.011 19.9308ZM185.286 25.1934C186.069 27.2719 186.472 29.6866 186.472 32.4545H188.472C188.472 29.4952 188.041 26.8342 187.157 24.4884L185.286 25.1934ZM186.472 32.4545V35.2273H188.472V32.4545H186.472ZM187.472 34.2273H157.131V36.2273H187.472V34.2273ZM158.131 35.2273V28.7727H156.131V35.2273H158.131ZM157.131 29.7727H177.131V27.7727H157.131V29.7727ZM178.131 28.7599C178.113 27.4218 177.794 26.1947 177.151 25.1054L175.429 26.1219C175.877 26.881 176.118 27.76 176.131 28.7855L178.131 28.7599ZM177.151 25.1054C176.512 24.0226 175.628 23.1752 174.515 22.5745L173.565 24.3346C174.361 24.7642 174.977 25.3562 175.429 26.1219L177.151 25.1054ZM174.531 22.5837C173.422 21.9576 172.165 21.6591 170.79 21.6591V23.6591C171.869 23.6591 172.778 23.8908 173.548 24.3254L174.531 22.5837ZM170.79 21.6591C169.391 21.6591 168.104 21.9764 166.954 22.6309L167.944 24.3691C168.763 23.9024 169.704 23.6591 170.79 23.6591V21.6591ZM166.964 22.6252C165.828 23.2546 164.919 24.1275 164.252 25.2335L165.964 26.2665C166.449 25.4634 167.1 24.8363 167.933 24.3748L166.964 22.6252ZM164.255 25.2274C163.58 26.3296 163.234 27.5722 163.199 28.9292L165.199 28.9799C165.225 27.943 165.485 27.0492 165.961 26.2726L164.255 25.2274ZM163.199 28.9545V35.5227H165.199V28.9545H163.199ZM163.199 35.5227C163.199 37.0799 163.506 38.4935 164.153 39.7349L165.927 38.8106C165.452 37.9004 165.199 36.8141 165.199 35.5227H163.199ZM164.156 39.74C164.804 40.9661 165.732 41.9314 166.929 42.6175L167.924 40.8825C167.059 40.3868 166.397 39.7005 165.924 38.8054L164.156 39.74ZM166.929 42.6175C168.138 43.311 169.544 43.6364 171.108 43.6364V41.6364C169.823 41.6364 168.775 41.3708 167.924 40.8825L166.929 42.6175ZM171.108 43.6364C172.185 43.6364 173.19 43.4872 174.111 43.1742L173.468 41.2804C172.784 41.5128 172.001 41.6364 171.108 41.6364V43.6364ZM174.111 43.1742C175.035 42.8604 175.849 42.3907 176.535 41.7583L175.18 40.2872C174.716 40.7153 174.15 41.0487 173.468 41.2804L174.111 43.1742ZM176.535 41.7583C177.233 41.1157 177.751 40.3293 178.09 39.4173L176.216 38.7191C175.98 39.3525 175.634 39.8692 175.18 40.2872L176.535 41.7583ZM177.124 40.0678L187.329 40.3632L187.387 38.3641L177.182 38.0686L177.124 40.0678ZM186.375 39.1813C185.981 41.3059 185.121 43.1362 183.8 44.694L185.325 45.9878C186.883 44.1516 187.887 41.9971 188.341 39.546L186.375 39.1813ZM183.799 44.6947C182.493 46.2372 180.762 47.459 178.573 48.3459L179.324 50.1995C181.772 49.2076 183.783 47.8083 185.326 45.9872L183.799 44.6947ZM178.579 48.3438C176.401 49.212 173.849 49.6591 170.903 49.6591V51.6591C174.049 51.6591 176.86 51.1819 179.319 50.2016L178.579 48.3438ZM204.398 3.45454H205.398V2.45454H204.398V3.45454ZM204.398 50V51H205.398V50H204.398ZM193.148 50H192.148V51H193.148V50ZM193.148 3.45454V2.45454H192.148V3.45454H193.148ZM203.398 3.45454V50H205.398V3.45454H203.398ZM204.398 49H193.148V51H204.398V49ZM194.148 50V3.45454H192.148V50H194.148ZM193.148 4.45454H204.398V2.45454H193.148V4.45454ZM211.46 3.45454V2.45454H210.46V3.45454H211.46ZM225.392 3.45454L226.317 3.07512L226.063 2.45454H225.392V3.45454ZM237.21 32.2727L236.285 32.6522L236.54 33.2727H237.21V32.2727ZM237.756 32.2727V33.2727H238.426L238.681 32.6522L237.756 32.2727ZM249.574 3.45454V2.45454H248.903L248.649 3.07512L249.574 3.45454ZM263.506 3.45454H264.506V2.45454H263.506V3.45454ZM263.506 50V51H264.506V50H263.506ZM252.551 50H251.551V51H252.551V50ZM252.551 21.4091H253.551V20.4091H252.551V21.4091ZM252.165 21.4091V20.4091H251.485L251.235 21.0416L252.165 21.4091ZM240.983 49.7045V50.7045H241.663L241.913 50.0721L240.983 49.7045ZM233.983 49.7045L233.052 50.0703L233.301 50.7045H233.983V49.7045ZM222.801 21.25L223.732 20.8843L223.483 20.25H222.801V21.25ZM222.415 21.25V20.25H221.415V21.25H222.415ZM222.415 50V51H223.415V50H222.415ZM211.46 50H210.46V51H211.46V50ZM211.46 4.45454H225.392V2.45454H211.46V4.45454ZM224.467 3.83397L236.285 32.6522L238.135 31.8933L226.317 3.07512L224.467 3.83397ZM237.21 33.2727H237.756V31.2727H237.21V33.2727ZM238.681 32.6522L250.499 3.83397L248.649 3.07512L236.83 31.8933L238.681 32.6522ZM249.574 4.45454H263.506V2.45454H249.574V4.45454ZM262.506 3.45454V50H264.506V3.45454H262.506ZM263.506 49H252.551V51H263.506V49ZM253.551 50V21.4091H251.551V50H253.551ZM252.551 20.4091H252.165V22.4091H252.551V20.4091ZM251.235 21.0416L240.053 49.337L241.913 50.0721L253.095 21.7766L251.235 21.0416ZM240.983 48.7045H233.983V50.7045H240.983V48.7045ZM234.914 49.3388L223.732 20.8843L221.87 21.6157L233.052 50.0703L234.914 49.3388ZM222.801 20.25H222.415V22.25H222.801V20.25ZM221.415 21.25V50H223.415V21.25H221.415ZM222.415 49H211.46V51H222.415V49ZM212.46 50V3.45454H210.46V50H212.46ZM270.523 50H269.523V51H270.523V50ZM270.523 3.45454V2.45454H269.523V3.45454H270.523ZM299.955 6.25L299.477 7.12835L299.481 7.13084L299.955 6.25ZM307.909 14.25L307.027 14.7216L307.028 14.7232L307.909 14.25ZM307.909 39.2045L307.027 38.733L307.026 38.736L307.909 39.2045ZM299.977 47.2273L300.451 48.1081L300.454 48.1065L299.977 47.2273ZM281.773 40.4091H280.773V41.4091H281.773V40.4091ZM293.909 39.0909L294.347 39.9898L294.35 39.9883L293.909 39.0909ZM298.023 34.75L297.116 34.3275L297.115 34.3305L298.023 34.75ZM298.023 18.7045L297.118 19.1297L297.119 19.1323L298.023 18.7045ZM293.864 14.3864L293.422 15.2838L293.431 15.2881L293.864 14.3864ZM281.773 13.0455V12.0455H280.773V13.0455H281.773ZM287.727 49H270.523V51H287.727V49ZM271.523 50V3.45454H269.523V50H271.523ZM270.523 4.45454H287.705V2.45454H270.523V4.45454ZM287.705 4.45454C292.316 4.45454 296.228 5.36008 299.477 7.12834L300.433 5.37166C296.833 3.41264 292.578 2.45454 287.705 2.45454V4.45454ZM299.481 7.13084C302.745 8.8849 305.255 11.4082 307.027 14.7216L308.791 13.7784C306.836 10.1221 304.043 7.31206 300.428 5.36916L299.481 7.13084ZM307.028 14.7232C308.798 18.0179 309.705 21.9993 309.705 26.7045H311.705C311.705 21.7431 310.748 17.4215 308.79 13.7768L307.028 14.7232ZM309.705 26.7045C309.705 31.4254 308.798 35.4226 307.027 38.733L308.791 39.6761C310.748 36.0168 311.705 31.6807 311.705 26.7045H309.705ZM307.026 38.736C305.269 42.0484 302.766 44.5791 299.501 46.348L300.454 48.1065C304.068 46.1482 306.853 43.3304 308.793 39.6731L307.026 38.736ZM299.504 46.3464C296.238 48.1018 292.324 49 287.727 49V51C292.585 51 296.838 50.0497 300.451 48.1081L299.504 46.3464ZM281.773 41.4091H287.295V39.4091H281.773V41.4091ZM287.295 41.4091C290.01 41.4091 292.373 40.952 294.347 39.9898L293.471 38.192C291.839 38.9874 289.793 39.4091 287.295 39.4091V41.4091ZM294.35 39.9883C296.393 38.9842 297.919 37.3581 298.93 35.1695L297.115 34.3305C296.278 36.1419 295.062 37.4098 293.468 38.1935L294.35 39.9883ZM298.929 35.1725C299.953 32.9753 300.432 30.1318 300.432 26.7045H298.432C298.432 29.9743 297.971 32.4944 297.116 34.3275L298.929 35.1725ZM300.432 26.7045C300.432 23.2785 299.954 20.447 298.927 18.2768L297.119 19.1323C297.971 20.9318 298.432 23.4336 298.432 26.7045H300.432ZM298.928 18.2794C297.9 16.0902 296.356 14.4719 294.296 13.4846L293.431 15.2881C295.038 16.0584 296.267 17.3189 297.118 19.1297L298.928 18.2794ZM294.305 13.489C292.313 12.5097 289.91 12.0455 287.136 12.0455V14.0455C289.696 14.0455 291.778 14.4752 293.422 15.2838L294.305 13.489ZM287.136 12.0455H281.773V14.0455H287.136V12.0455ZM280.773 13.0455V40.4091H282.773V13.0455H280.773ZM317.273 50H316.273V51H317.273V50ZM317.273 3.45454V2.45454H316.273V3.45454H317.273ZM345.432 4.93182L345.045 5.85401L345.047 5.85489L345.432 4.93182ZM350.75 9.06818L349.918 9.62289L349.921 9.62778L350.75 9.06818ZM351.432 19.9773L352.312 20.4514L352.314 20.4474L351.432 19.9773ZM348.364 23.4091L347.791 22.589L348.364 23.4091ZM343.841 25.3182L343.633 24.34L342.841 24.5083V25.3182H343.841ZM343.841 25.7727H342.841V26.7255L343.793 26.7716L343.841 25.7727ZM349.045 27.2955L348.543 28.1601L348.547 28.1622L349.045 27.2955ZM352.909 31.1591L352.047 31.6654L352.049 31.6689L352.909 31.1591ZM352.455 43.6818L353.293 44.2275L353.294 44.2245L352.455 43.6818ZM346.932 48.3182L347.354 49.2248L347.358 49.2226L346.932 48.3182ZM328.523 40.9318H327.523V41.9318H328.523V40.9318ZM340.864 39.5455L340.243 38.7616L340.238 38.7656L340.864 39.5455ZM341.773 32.5909L340.93 33.1287L340.934 33.1354L341.773 32.5909ZM339.386 30.5682L338.961 31.4731L338.972 31.4781L339.386 30.5682ZM328.523 29.8409V28.8409H327.523V29.8409H328.523ZM328.523 22.5909H327.523V23.5909H328.523V22.5909ZM340.25 20.2045L339.433 19.6278L339.425 19.6387L340.25 20.2045ZM339.409 13.7273L340.038 12.9495L339.409 13.7273ZM328.523 12.3864V11.3864H327.523V12.3864H328.523ZM318.273 50V3.45454H316.273V50H318.273ZM317.273 4.45454H336.682V2.45454H317.273V4.45454ZM336.682 4.45454C340.08 4.45454 342.855 4.93569 345.045 5.85401L345.819 4.00962C343.311 2.95824 340.254 2.45454 336.682 2.45454V4.45454ZM345.047 5.85489C347.266 6.77936 348.866 8.04511 349.918 9.62288L351.582 8.51348C350.27 6.5458 348.325 5.05397 345.816 4.00874L345.047 5.85489ZM349.921 9.62778C350.996 11.2202 351.545 13.0744 351.545 15.2273H353.545C353.545 12.7134 352.897 10.4616 351.579 8.50858L349.921 9.62778ZM351.545 15.2273C351.545 16.8564 351.206 18.2749 350.549 19.5072L352.314 20.4474C353.143 18.8917 353.545 17.1436 353.545 15.2273H351.545ZM350.551 19.5032C349.884 20.742 348.968 21.7681 347.791 22.589L348.936 24.2292C350.365 23.2319 351.495 21.9701 352.312 20.4514L350.551 19.5032ZM347.791 22.589C346.609 23.4141 345.228 24.0013 343.633 24.34L344.049 26.2964C345.878 25.9078 347.512 25.2223 348.936 24.2292L347.791 22.589ZM342.841 25.3182V25.7727H344.841V25.3182H342.841ZM343.793 26.7716C345.515 26.8549 347.094 27.3181 348.543 28.1601L349.548 26.4308C347.815 25.4243 345.924 24.8724 343.889 24.7739L343.793 26.7716ZM348.547 28.1622C349.997 28.9969 351.162 30.1583 352.047 31.6654L353.771 30.6528C352.717 28.8568 351.306 27.4425 349.544 26.4287L348.547 28.1622ZM352.049 31.6689C352.912 33.1253 353.364 34.8819 353.364 36.9773H355.364C355.364 34.5878 354.846 32.4656 353.769 30.6493L352.049 31.6689ZM353.364 36.9773C353.364 39.298 352.776 41.342 351.615 43.1391L353.294 44.2245C354.679 42.0823 355.364 39.6565 355.364 36.9773H353.364ZM351.617 43.1361C350.459 44.9142 348.771 46.345 346.505 47.4137L347.358 49.2226C349.911 48.0186 351.905 46.3586 353.293 44.2275L351.617 43.1361ZM346.51 47.4116C344.266 48.456 341.494 49 338.159 49V51C341.703 51 344.78 50.4228 347.354 49.2248L346.51 47.4116ZM338.159 49H317.273V51H338.159V49ZM328.523 41.9318H335.477V39.9318H328.523V41.9318ZM335.477 41.9318C338.008 41.9318 340.077 41.4589 341.49 40.3253L340.238 38.7656C339.347 39.4805 337.826 39.9318 335.477 39.9318V41.9318ZM341.485 40.3293C342.919 39.1929 343.614 37.6006 343.614 35.6818H341.614C341.614 37.066 341.142 38.0495 340.243 38.7616L341.485 40.3293ZM343.614 35.6818C343.614 34.3237 343.294 33.0971 342.612 32.0464L340.934 33.1354C341.373 33.8119 341.614 34.646 341.614 35.6818H343.614ZM342.616 32.0531C341.942 30.9975 340.991 30.2009 339.801 29.6583L338.972 31.4781C339.842 31.8749 340.482 32.4268 340.93 33.1287L342.616 32.0531ZM339.812 29.6634C338.618 29.1016 337.231 28.8409 335.682 28.8409V30.8409C337.012 30.8409 338.094 31.0651 338.961 31.473L339.812 29.6634ZM335.682 28.8409H328.523V30.8409H335.682V28.8409ZM327.523 29.8409V40.9318H329.523V29.8409H327.523ZM328.523 23.5909H334.75V21.5909H328.523V23.5909ZM334.75 23.5909C336.088 23.5909 337.317 23.3676 338.417 22.8964L337.629 21.0581C336.819 21.4051 335.866 21.5909 334.75 21.5909V23.5909ZM338.417 22.8964C339.526 22.4211 340.426 21.7159 341.075 20.7704L339.425 19.6387C339.014 20.2387 338.429 20.7153 337.629 21.0581L338.417 22.8964ZM341.067 20.7812C341.749 19.8149 342.068 18.6738 342.068 17.4091H340.068C340.068 18.3262 339.842 19.0488 339.433 19.6279L341.067 20.7812ZM342.068 17.4091C342.068 15.58 341.404 14.0534 340.038 12.9495L338.781 14.505C339.627 15.189 340.068 16.117 340.068 17.4091H342.068ZM340.038 12.9495C338.704 11.8714 336.966 11.3864 334.932 11.3864V13.3864C336.656 13.3864 337.902 13.7953 338.781 14.505L340.038 12.9495ZM334.932 11.3864H328.523V13.3864H334.932V11.3864ZM327.523 12.3864V22.5909H329.523V12.3864H327.523Z" fill="black"/>
</g>
<defs>
<filter id="filter0_d_12_2" x="0.522705" y="0.409058" width="363.841" height="60.2501" filterUnits="userSpaceOnUse" color-interpolation-filters="sRGB">
<feFlood flood-opacity="0" result="BackgroundImageFix"/>
<feColorMatrix in="SourceAlpha" type="matrix" values="0 0 0 0 0 0 0 0 0 0 0 0 0 0 0 0 0 0 127 0" result="hardAlpha"/>
<feOffset dx="8" dy="8"/>
<feGaussianBlur stdDeviation="1"/>
<feComposite in2="hardAlpha" operator="out"/>
<feColorMatrix type="matrix" values="0 0 0 0 0 0 0 0 0 0 0 0 0 0 0 0 0 0 1 0"/>
<feBlend mode="normal" in2="BackgroundImageFix" result="effect1_dropShadow_12_2"/>
<feBlend mode="normal" in="SourceGraphic" in2="effect1_dropShadow_12_2" result="shape"/>
</filter>
</defs>
</svg>
