<svg width="36" height="36" viewBox="0 0 36 36" fill="none" xmlns="http://www.w3.org/2000/svg">
<g clip-path="url(#clip0_7_43)">
<path d="M4.06424 4.06041C-0.650671 8.77479 -0.651189 16.4058 4.06398 21.121C8.25265 25.3095 14.7753 25.7578 19.476 22.4866L21.5611 24.5716C21.2173 25.2525 21.3142 26.1371 21.8686 26.6915C24.4262 29.2491 27.5519 32.3748 30.1148 34.9377C30.8207 35.6439 31.9698 35.6439 32.6757 34.9377L34.9415 32.6722C35.6483 31.9654 35.6492 30.8189 34.9415 30.1112C34.8417 30.0114 27.751 22.9206 26.6953 21.865C26.1561 21.3257 25.3173 21.1554 24.5701 21.5524L22.4931 19.4752C25.757 14.803 25.354 8.28928 21.1246 4.06041C16.4211 -0.643296 8.76769 -0.643296 4.06424 4.06041ZM22.6172 25.9428C22.3658 25.691 22.3504 25.282 22.5437 24.9924C22.7292 24.8844 22.4124 25.1383 24.9215 22.6524C25.2939 22.2799 25.7215 22.3889 25.9464 22.6136L26.7756 23.4427L23.4462 26.7719L22.6172 25.9428ZM32.6151 29.2821L29.2858 32.6114L24.1948 27.5205L27.5242 24.1913L32.6151 29.2821ZM31.9271 34.1891C31.6337 34.4822 31.1568 34.4822 30.8634 34.1891L30.0344 33.36L33.3636 30.0308L34.1929 30.8598C34.4781 31.1456 34.4754 31.6405 34.1929 31.9235L31.9271 34.1891ZM23.7598 22.2393L22.2429 23.7562L20.3277 21.841C20.6003 21.6129 20.8686 21.377 21.1246 21.121C21.3796 20.866 21.6172 20.5985 21.8463 20.3255L23.7598 22.2393ZM20.376 4.80903C22.4546 6.88764 23.5992 9.65102 23.5992 12.5904C23.5992 15.1594 22.7247 17.5936 21.1171 19.554L19.5722 21.0986C15.2537 24.6456 8.84524 24.4048 4.81261 20.3724C0.511732 16.071 0.511467 9.11042 4.81287 4.80902C9.10374 0.518413 16.0851 0.518413 20.376 4.80903Z" fill="#010101"/>
<path d="M5.85619 5.85234C2.13175 9.57678 2.13144 15.6043 5.85619 19.3291C9.57164 23.0445 15.617 23.0445 19.3327 19.3291C23.0571 15.6046 23.0574 9.57708 19.3327 5.85234C15.617 2.1369 9.57163 2.1369 5.85619 5.85234ZM18.584 6.60097C21.8946 9.91157 21.8948 15.2698 18.584 18.5805C15.2812 21.8831 9.90743 21.8831 6.60481 18.5805C3.2942 15.2699 3.2941 9.91167 6.60481 6.60097C9.90743 3.29834 15.2812 3.29834 18.584 6.60097Z" fill="#010101"/>
<path d="M6.07499 10.8208C5.94651 11.0824 6.05405 11.4003 6.31565 11.5298C6.57777 11.6591 6.89522 11.5515 7.02473 11.2892C7.35483 10.6199 7.7736 9.9907 8.26941 9.41916C8.46088 9.19806 8.43739 8.86398 8.21642 8.67235C7.9954 8.48079 7.66115 8.50458 7.46961 8.72534C6.9146 9.36539 6.44542 10.0703 6.07499 10.8208ZM11.4681 5.91542C10.6639 6.23053 9.89849 6.64749 9.19304 7.15416C8.95547 7.32477 8.90119 7.65513 9.07206 7.89296C9.24241 8.13026 9.57329 8.18455 9.81085 8.01394C10.4447 7.55872 11.1323 7.18441 11.8543 6.90135C12.1261 6.79472 12.2612 6.48831 12.1542 6.21528C12.0474 5.94308 11.7403 5.80866 11.4681 5.91542Z" fill="#010101"/>
</g>
<defs>
<clipPath id="clip0_7_43">
<rect width="36" height="36" fill="white" transform="translate(0 36) rotate(-90)"/>
</clipPath>
</defs>
</svg>
